# xmcd
#
# Track frame offsets: 
#        150
#        15508
#        27121
#        50046
#        66766
#        84512
#        106482
#        130764
#        150834
#        169440
#        194202
#
# Disc length: 2715 seconds
#
# Revision: 0
# Processed by: cddbd v1.5.2PL0 Copyright (c) Steve Scherf et al.
# Submitted via: ExactAudioCopyFreeDBPlugin 1.0
#
DISCID=8e0a990b
DTITLE=Abbie Cardwell and Her Leading Men - The Bare Bones Session
DYEAR=2010
DGENRE=Bluegrass
TTITLE0=52 Pick Up
TTITLE1=Candystore
TTITLE2=Ode To Billy Joe
TTITLE3=Down
TTITLE4=Come Pick Me Up
TTITLE5=Oh The Places You Will Go
TTITLE6=Buttercup
TTITLE7=Darlin'
TTITLE8=Riddle and Rhyme
TTITLE9=Open Road
TTITLE10=Future's So Bright
EXTD=
EXTT0=
EXTT1=
EXTT2=
EXTT3=
EXTT4=
EXTT5=
EXTT6=
EXTT7=
EXTT8=
EXTT9=
EXTT10=
PLAYORDER=
